<svg xmlns="http://www.w3.org/2000/svg" viewBox="0 14.25 86 37" width="40" height="40" data-asc="1.02">
    <defs>
        <linearGradient id="gradient" gradientUnits="userSpaceOnUse" x1="0%" y1="0%" x2="100%" y2="0%">
            <stop offset="0%" stop-color="#00bbbb"/>
            <stop offset="100%" stop-color="#8bcd6a"/>
        </linearGradient>
    </defs>
    <path fill="url(#gradient)" d="M23 48.55L0 38.15L0 31L23 20.55L23 27.35L9.20 33.40Q8.20 33.85 7.10 34.15Q6 34.45 5.35 34.55Q6 34.65 7.10 34.92Q8.20 35.20 9.20 35.65L23 41.70L23 48.55ZM25.75 51L52.15 14.50L57.25 14.50L30.85 51L25.75 51M48.50 51.25Q45.25 51.25 43.13 49.40Q41 47.55 41 44.50L41 41.25Q41 38.20 43.13 36.35Q45.25 34.50 48.50 34.50Q51.75 34.50 53.88 36.35Q56 38.20 56 41.25L56 44.50Q56 47.55 53.88 49.40Q51.75 51.25 48.50 51.25M48.50 47.05Q51.05 47.05 51.05 44.50L51.05 41.25Q51.05 38.65 48.50 38.65Q45.95 38.65 45.95 41.25L45.95 44.50Q45.95 47.05 48.50 47.05M34.50 31Q31.35 31 29.18 29.20Q27 27.40 27 24.25L27 21Q27 17.85 29.18 16.05Q31.35 14.25 34.50 14.25Q37.65 14.25 39.83 16.05Q42 17.85 42 21L42 24.25Q42 27.40 39.83 29.20Q37.65 31 34.50 31M34.50 26.85Q37.05 26.85 37.05 24.25L37.05 21Q37.05 18.40 34.50 18.40Q33.25 18.40 32.60 19.02Q31.95 19.65 31.95 21L31.95 24.25Q31.95 25.60 32.60 26.22Q33.25 26.85 34.50 26.85ZM60 51L61.45 42.50L57.50 42.50L57.50 37.50L62.30 37.50L63.95 28L59 28L59 23L64.80 23L66.25 14.50L71.50 14.50L70.05 23L76.30 23L77.75 14.50L83 14.50L81.55 23L85.50 23L85.50 28L80.70 28L79.05 37.50L84 37.50L84 42.50L78.20 42.50L76.75 51L71.50 51L72.95 42.50L66.70 42.50L65.25 51L60 51M67.55 37.50L73.80 37.50L75.45 28L69.20 28L67.55 37.50Z"/>
</svg>